<svg width="1920" height="1080" viewBox="0 0 1920 1080" fill="none" xmlns="http://www.w3.org/2000/svg">
<g clip-path="url(#clip0)">
<path d="M2046.13 -111.656C2119.74 -62.8127 2124.64 76.9794 2145.25 184.771C2165.86 291.72 2203.15 364.985 2238.48 456.776C2274.79 547.725 2309.14 657.201 2268.91 735.518C2227.69 812.993 2112.87 860.152 2002.95 866.889C1893.04 874.468 1788.03 842.468 1714.43 795.309C1641.81 747.308 1600.59 684.991 1520.12 663.096C1438.66 642.043 1318.93 660.569 1215.89 629.411C1113.83 599.095 1029.43 519.093 1052.98 450.881C1077.51 382.669 1210.98 327.089 1255.14 210.035C1299.31 92.1376 1254.16 -86.3921 1310.1 -143.656C1367.02 -200.921 1525.02 -136.077 1676.15 -125.972C1827.29 -115.866 1971.55 -159.657 2046.13 -111.656Z" fill="#F2F6FF"/>
<path d="M2138.13 -155.656C2211.74 -106.813 2216.64 32.9794 2237.25 140.771C2257.86 247.72 2295.15 320.985 2330.48 412.776C2366.79 503.725 2401.14 613.201 2360.91 691.518C2319.69 768.993 2204.87 816.152 2094.95 822.889C1985.04 830.468 1880.03 798.468 1806.43 751.309C1733.81 703.308 1692.59 640.991 1612.12 619.096C1530.66 598.043 1410.93 616.569 1307.89 585.411C1205.83 555.095 1121.43 475.093 1144.98 406.881C1169.51 338.669 1302.98 283.089 1347.14 166.035C1391.31 48.1376 1346.16 -130.392 1402.1 -187.656C1459.02 -244.921 1617.02 -180.077 1768.15 -169.972C1919.29 -159.866 2063.55 -203.657 2138.13 -155.656Z" fill="#2A5BD7"/>
</g>
<defs>
<clipPath id="clip0">
<rect width="1920" height="1080" fill="white"/>
</clipPath>
</defs>
</svg>
